<?xml version="1.0" encoding="UTF-8"?>
<svg xmlns="http://www.w3.org/2000/svg" viewBox="0 0 44 44">
  <defs>
    <style>
      .cls-1, .cls-2 {
        fill: none;
      }

      .cls-2 {
        stroke: #fff;
        stroke-linecap: round;
        stroke-linejoin: round;
        stroke-width: 2px;
      }
    </style>
  </defs>
  <g id="base">
    <path class="cls-1" d="m0,0h44v44H0V0Z"/>
  </g>
  <g id="icon">
    <path class="cls-2" d="m27.5,20.17v.02"/>
    <path class="cls-2" d="m29.33,5.5v6.97c2.27,1.31,4,3.39,4.87,5.86h2.46c1.01,0,1.83.82,1.83,1.83v3.67c0,1.01-.82,1.83-1.83,1.83h-2.46c-.62,1.74-1.66,3.3-3.04,4.53v3.72c0,1.52-1.23,2.75-2.75,2.75s-2.75-1.23-2.75-2.75v-1.07c-.61.1-1.22.15-1.83.15h-7.33c-.61,0-1.23-.05-1.83-.15v1.07c0,1.52-1.23,2.75-2.75,2.75s-2.75-1.23-2.75-2.75v-3.72c-4.53-4.05-4.92-11-.87-15.53,2.09-2.33,5.07-3.67,8.2-3.67h4.58l8.25-5.5h0Z"/>
  </g>
</svg>