<?xml version="1.0" encoding="UTF-8"?>
<svg xmlns="http://www.w3.org/2000/svg" viewBox="0 0 44 44">
  <defs>
    <style>
      .cls-1, .cls-2 {
        fill: none;
      }
      .cls-2 {
        stroke: #000;
        stroke-linecap: round;
        stroke-linejoin: round;
        stroke-width: 2px;
      }
    </style>
  </defs>
  <g id="base">
    <g id="base-2" data-name="base">
      <path class="cls-1" d="m0,0h44v44H0V0Z"/>
    </g>
  </g>
  <g id="icon">
    <g id="icon-2" data-name="icon">
      <rect class="cls-2" x="4.22" y="11.51" width="35.55" height="20.99" rx="4.5" ry="4.5"/>
    </g>
    <line class="cls-2" x1="18.88" y1="19.82" x2="35.88" y2="19.82"/>
    <line class="cls-2" x1="26.38" y1="25.63" x2="35.88" y2="25.63"/>
    <line class="cls-2" x1="18.88" y1="25.63" x2="21.27" y2="25.63"/>
    <path class="cls-2" d="m14.59,18.96c-.27-.77-.98-1.3-1.8-1.33h-2.67c-1.11,0-2,.9-2,2s.9,2,2,2h2.67c1.11,0,2,.9,2,2s-.9,2-2,2h-2.67c-.82-.04-1.53-.56-1.8-1.33"/>
    <path class="cls-2" d="m11.46,15.63v2m0,8v2"/>
  </g>
</svg>